<svg xmlns="http://www.w3.org/2000/svg" data-name="Layer 1" viewBox="0 0 100 125" x="0px"  width="20000px" height="20000px" y="0px"><title>Artboard 80</title><path d="M58,45a7.77,7.77,0,0,0-2.29-5.54L45.12,28.88a3.07,3.07,0,0,0-4.24,0,3,3,0,0,0,0,4.24L49.76,42H36A15,15,0,0,0,21,57V69a3,3,0,0,0,6,0V57a9,9,0,0,1,9-9H49.76l-8.88,8.88a3,3,0,0,0,0,4.24,3.07,3.07,0,0,0,4.24,0L55.71,50.54A7.77,7.77,0,0,0,58,45Z"/><path d="M79,45a7.77,7.77,0,0,0-2.29-5.54L66.12,28.88a3,3,0,1,0-4.24,4.24L72.5,43.75a1.78,1.78,0,0,1,0,2.51L62,56.72a3.33,3.33,0,0,0-1,2.43A2.86,2.86,0,0,0,62,61.22a3.07,3.07,0,0,0,4.13-.1L76.71,50.54A7.77,7.77,0,0,0,79,45Z"/></svg>